# xmcd
#
# Track frame offsets: 
#        150
#        18152
#        39065
#        72332
#        106202
#        138362
#        155102
#        188925
#        213540
#        242295
#        273945
#        307577
#
# Disc length: 4465 seconds
#
# Revision: 2
# Processed by: cddbd v1.5.2PL0 Copyright (c) Steve Scherf et al.
# Submitted via: ExactAudioCopyFreeDBPlugin 1.0
#
DISCID=95116f0c
DTITLE=Karyn White - Romantic - Moonlight Mix EP [Japan]
DYEAR=1991
DGENRE=Funk
TTITLE0=Romantic [Sexy Mix]
TTITLE1=Romantic [Passionate Beat Mix]
TTITLE2=Romantic [Moonlight Mix]
TTITLE3=Romantic [Candlelight Mix]
TTITLE4=Romantic [Sensuous Mix]
TTITLE5=Romantic [Instrumental]
TTITLE6=The Way You Love Me [12" Hype Remix]
TTITLE7=The Way You Love Me [Love Dub #1]
TTITLE8=The Way You Love Me [12" Club Mix]
TTITLE9=Secret Rendezvous [Extended Remix]
TTITLE10=Secret Rendezvous [12" White House Remix]
TTITLE11=Secret Rendezvous [Bacepella]
EXTD=YEAR: 2000
EXTT0=
EXTT1=
EXTT2=
EXTT3=
EXTT4=
EXTT5=
EXTT6=
EXTT7=
EXTT8=
EXTT9=
EXTT10=
EXTT11=
PLAYORDER=
